<svg xmlns="http://www.w3.org/2000/svg" width="364" height="335" version="1.2">
    <path id="Layer" fill-rule="evenodd" d="M273 77.5c19.8 20.9 31.9 48.5 31.9 78.8q0 2.4-.2 4.9h-4.5v-.1h-1.6c-.5.1-1.4.1-1.9.1h-.6c-.5 0-1.3.3-1.6.6l-1.2 1.1c-.4.4-.9 1-1.2 1.4l-9 12.9c-.2.4-.8 1-1.1 1.3l-2.5 2.4c-.3.3-.9.3-1.3 0l-2.4-2.4c-.4-.3-.8-1-1-1.4l-1.9-5.5c-.1-.5-.4-1.2-.6-1.7l-1.9-5.5c-.1-.5-.6-1.1-.9-1.5l-6.2-5.9c-.4-.3-1.1-.6-1.6-.7l-11-.8c-.5-.1-1.3-.2-1.8-.3l-5.4-1c-.5-.1-1.2-.5-1.6-.8l-3.7-3.5c-.3-.4-.9-.4-1.3 0l-1.2 1.1q-.1.1-.2.3v.6q.1.2.3.3l6.2 5.4c.4.4 1 .4 1.4.1l1.1-.9c.4-.3 1-.2 1.3.1l1.2 1.2c.3.4 1 .7 1.5.7h.7c.5 0 1.2.3 1.5.6l1.2 1.1c.4.4.4 1 0 1.3l-6.2 5.9c-.3.3-1 .6-1.6.6h-.6c-.5 0-1.3.3-1.7.6l-3.3 2.3c-.4.2-1.1.7-1.6.9l-7 3c-.5.2-1.1 0-1.4-.4l-6.7-8.9c-.3-.4-.8-1.1-1-1.5l-6-10.4c-.3-.5-.8-.6-1.3-.4-.4.2-.6.8-.5 1.3l5.8 16.3c.1.4.5 1.1.9 1.5l8.3 8.5c.4.4 1.1.7 1.6.7h8.4c.6 0 1 .4 1 .9v.6c0 .5-.3 1.2-.7 1.6l-3.8 3.6c-.4.4-.9 1-1.2 1.4l-3.9 5.8c-.3.4-.8 1-1.2 1.3l-6.6 6.3c-.4.3-.7 1-.7 1.5v5.6c0 .5.3 1.2.7 1.5l1.2 1.2c.4.4.7 1.1.7 1.6v3.1c0 .5-.2 1.2-.5 1.6l-6.5 8.8c-.3.4-.8 1.1-1 1.5l-4.5 7.9c-.2.5-.7 1.1-1.1 1.4l-9 8.6c-.3.4-1.1.7-1.6.8l-7.1 1c-.5 0-1.3-.2-1.6-.5l-1.3-1.2c-.3-.4-.8-1-.9-1.5l-.7-2c-.2-.5-.5-1.2-.7-1.6l-1.8-3.4c-.2-.4-.4-1.2-.4-1.7v-8c0-.5-.1-1.3-.2-1.8l-2.2-10.5c-.1-.5-.2-1.3-.2-1.8v-8.1c0-.5-.3-1.2-.7-1.5l-3.8-3.7c-.4-.3-.8-1-1.1-1.4l-4.3-8.3c-.2-.4-.7-1-1.1-1.4l-1.2-1.2c-.4-.3-1.1-.6-1.6-.6h-8.5c-.5 0-1.2.3-1.6.6l-1.2 1.2c-.4.4-1.1.6-1.6.6h-5.9c-.5 0-1.2-.2-1.6-.6l-6.4-6.1c-.4-.4-.9-1-1.1-1.5l-1.8-3.3c-.2-.4-.4-1.2-.3-1.7l.6-16.2c0-.5.2-1.2.4-1.7l1.1-2.5c.2-.5.7-1.1 1.1-1.5l9-8.6c.3-.3.9-.9 1.3-1.2l1.3-1.2c.3-.4 1-.7 1.5-.7h3.3c.6 0 1.3-.2 1.6-.6l1.3-1.2c.4-.3 1.1-.6 1.6-.6h6.1c.5 0 1.3.2 1.7.5l6 3.9c.4.3 1.1.7 1.6.9l8.6 4.1c.5.3 1.3.4 1.8.4h3.3c.5 0 .9-.4.9-.9v-.6c0-.5.3-1.2.7-1.6l1.2-1.2c.4-.3 1.1-.6 1.6-.6h.7c.5 0 1.3.3 1.6.6l1.3 1.2c.3.4 1 .6 1.5.4l8.5-2.7c.5-.2 1.3-.5 1.7-.7l5.3-2.5c.4-.2.8-.8.8-1.3l.1-1.7c0-.5-.4-.9-.9-.9h-8.2c-.5 0-1.2-.3-1.6-.6l-2.4-2.3c-.4-.4-.4-1-.1-1.3.4-.3.6-.9.6-1.3s-.5-.8-1-.9l-3-.6c-.5-.1-1.2.1-1.6.5l-1.2 1.1c-.3.3-.4 1-.1 1.3l.3.4c.3.4.1.7-.4.7h-.6c-.5 0-1.2-.3-1.6-.7l-2.6-2.8c-.3-.4-.3-.9 0-1.3.4-.3.4-.9.1-1.3l-5.5-6.9c-.3-.4-.9-.5-1.3-.2l-2.2 1.4c-.5.2-.5.8-.2 1.2l6.6 8c.3.4.2 1-.2 1.3l-.5.4c-.4.3-1 .9-1.4 1.2 0 0-.8.8-1.2.9-.4 0-1.1-.2-1.1-.9 0-.5.4-.9.7-1.4.3-.5 0-1.2-.3-1.5-.4-.4-1.9-1.8-2.3-2.2l-6.2-5.9c-.3-.3-1-.5-1.5-.3L173 127c-.5.1-1.2.6-1.5 1l-3.4 3.9c-.4.3-1.1.7-1.6.7h-.6c-.5 0-.9.4-.9.8v.7c0 .4-.3 1.1-.7 1.5l-3.7 3.5c-.3.3-1.1.6-1.6.6h-3.1c-.5 0-1.2-.3-1.6-.6l-2.4-2.3c-.4-.4-.4-.9-.1-1.3.4-.3.6-.9.5-1.4l-.2-1.7c0-.4.1-1.2.4-1.6l1.7-2.4c.3-.4.9-.7 1.4-.7l5.9.1c.5 0 1.1-.4 1.3-.9l.6-1.9c.2-.4 0-1.1-.3-1.4l-3.7-3.5c-.4-.4-.4-.9-.1-1.3.4-.3 1.1-.6 1.6-.6h3.1c.5 0 1.3-.2 1.6-.6l6.2-5.9c.4-.4 1.1-.6 1.6-.6h.6c.6 0 1.1-.4 1.3-.9l1.9-5.5c.1-.4.5-1.1.9-1.4.3-.3.9-.3 1.3 0l1.2 1.2q.1.1.1.2.1.2.1.4t-.1.3-.1.3l-1.2 1.1q-.2.2-.2.3-.1.2-.1.4 0 .1.1.3 0 .2.2.3l1.2 1.1c.3.4 1 .7 1.5.7h10.6c.5 0 1.2-.3 1.6-.7l1.3-1.1c.3-.4.3-.9 0-1.2-.3-.4-.6-1-.6-1.5v-.6c0-.5.3-1.2.6-1.5l1.2-1.2q.1-.1.3-.2h.7q.2.1.3.2l1.2 1.2c.4.3.9.3 1.3 0 .3-.3.3-.9 0-1.2-.4-.3-.6-1-.6-1.5v-.6c0-.5.4-.9.9-1l3.6-.4c.5-.1 1.1-.5 1.3-.9l.6-1c.2-.5 0-.8-.5-.7l-5.3 1c-.5.1-1.4.1-1.9 0l-.9-.1c-.5-.1-1-.6-1.1-1.1l-.1-.6c0-.5-.1-1.3-.1-1.8v-3c0-.5.3-1.1.7-1.4l2.6-1.9c.4-.3.6-.9.5-1.4l-.1-.1c-.1-.5-.6-.8-1.1-.8h-.7c-.5 0-1.2.2-1.6.6l-1.2 1.1c-.3.4-.8 1-1 1.5l-.8 1.9c-.2.4-.7 1.1-1 1.4l-2.2 2.4c-.3.3-.3.9 0 1.3l1.3 1.4c.4.4.3 1-.1 1.3l-1.1.8c-.4.4-.7 1-.7 1.5v3c0 .5-.4 1-.8 1.2-.4.2-1 .7-1.2 1.1l-.1.2c-.2.4-.9.8-1.4.8h-1.3c-.5 0-1-.3-1.2-.6-.1-.3-.4-.8-.6-1.2-.1-.4-.4-1.1-.5-1.6l-.4-1.1c-.2-.5-.5-1.3-.6-1.7l-.4-1.4c-.2-.4-.6-.5-1-.2l-2.4 2.4c-.4.3-1 .4-1.5.2l-.8-.3c-.5-.1-1.2-.5-1.6-.8l-2.2-1.4c-.4-.3-.7-.9-.7-1.4l-.1-4.4c0-.5.2-1.2.5-1.7l1.8-2.5c.2-.4.8-.9 1.3-1.2l5.2-3.2c.4-.2 1-.8 1.4-1.1l4.7-5.2c.3-.4.9-1 1.3-1.3l4.6-4.5c.4-.3 1.1-.7 1.6-.8l3.4-.7c.5-.1 1.4-.1 1.9 0l7.7 2c.5.1 1.3.4 1.7.6l10.8 4.1c.5.2 1.3.5 1.7.7l3.4 1.6c.4.2.8.8.8 1.3v.6c0 .5-.3 1.1-.7 1.5l-1.1 1.1c-.4.4-1.1.7-1.6.7h-.7c-.5 0-1.3-.1-1.8-.2l-1.5-.2c-.5 0-1.2-.3-1.6-.7l-1-.8c-.4-.4-1.1-.6-1.6-.6h-.6c-.5.1-.6.3-.2.6l2.5 2c.4.3.9.9 1.1 1.4l.9 2.4c.2.5.8.8 1.3.8h3.2c.5 0 1.2-.2 1.7-.4l10.9-6.3 1.6-.9 6.8-3.9c.4-.2 1.2-.4 1.7-.4h7.3c.5 0 1.2-.3 1.6-.6l1.2-1.2c.3-.3 1-.6 1.6-.6h3.1c.5 0 1.2.3 1.6.6l1.2 1.2c.3.3 1 .6 1.6.6h9.4m-46.1 53.2c.4-.4.4-.9 0-1.3l-1.2-1.1c-.3-.4-1-.7-1.6-.7h-.6c-.5 0-1.2-.3-1.5-.7l-1.2-1.8c-.3-.4-.4-1.1-.1-1.5l1.4-2.3c.3-.5.1-.8-.5-.8h-.6c-.5 0-1.2.3-1.6.6l-4.9 4.7c-.4.4-1 .4-1.3.1-.4-.4-.4-.9 0-1.2.3-.4.3-.9 0-1.2-.3-.4-1-.6-1.6-.6h-.6c-.5 0-1.2.3-1.6.6l-3.7 3.5c-.3.4-.6 1.1-.6 1.5v.7c0 .4.3 1.1.6 1.5l1.2 1.1c.4.4 1.1.6 1.6.6h.6c.5 0 1.3-.2 1.6-.6l1.2-1.1c.4-.4 1.1-.6 1.6-.6h.6c.5 0 1.3.2 1.6.6l1.2 1.1c.4.4 1.1.6 1.6.6h5.6c.5 0 1.3-.2 1.6-.6l1.2-1.1zm-131.5 16q0-.1 0 0zm191 36.7c-.5.5-1.4.5-1.9 0l-1.3-1.1c-.5-.5-.5-1.3 0-1.8l3.2-3.1c.5-.5 1.1-.3 1.3.4l.7 2.2c.2.7 0 1.6-.5 2.1l-1.5 1.3z" fill="#0079c1"/>
    <path d="m232.4 227.9 1.8-3.3c.3-.4.6-1.1.9-1.6l3.3-6.8c.3-.4.5-1.2.6-1.7l.3-1.5c.1-.5-.1-1.1-.4-1.5-.4-.3-1-.3-1.3.1l-3.7 3.5c-.4.3-1.1.6-1.6.6h-.6c-.6 0-1 .4-1 .9v3c0 .5-.3 1.2-.6 1.5l-1.2 1.2c-.4.3-.7 1-.7 1.5v.6c0 .5.3 1.1.7 1.5l2.4 2.1c.3.4.9.3 1.1-.1m-48.5-88.1 1.4-1.4c.4-.4.3-.7-.3-.7h-2.8c-.6 0-.8.4-.5.8l.8 1.1c.3.5.9.6 1.4.1m18.3 1.6.6-.4c.5-.4.6-1.1.1-1.6l-1-1c-.5-.5-1.4-.8-2.1-.7l-1.5.3c-.7.1-.9.5-.4 1l2.5 2.3c.5.5 1.3.5 1.8.1M155.7 113l7.8-.2c.6 0 .9-.3.9-.6s.3-.8.7-1.2l1.2-1.2c.3-.4.6-1.1.6-1.6v-2.5c0-.5-.4-.9-.9-.9h-.7c-.5 0-.9-.4-.9-.9v-.6c0-.5-.3-1.2-.7-1.5l-3.6-3.5q-.2-.2-.2-.3-.1-.2-.1-.4 0-.1.1-.3 0-.2.2-.3l1.1-1.1q.2-.2.2-.3.1-.2.1-.4 0-.1-.1-.3 0-.2-.2-.3l-2.4-2.3q-.1-.1-.3-.2-.2-.1-.4-.1-.1 0-.3.1-.2.1-.3.2l-2.4 2.3c-.4.3-.7 1-.7 1.5v3c0 .5.4.9.9.9h.7c.5 0 1.1.4 1.3.8l1.7 3.2c.2.4.1 1.1-.2 1.4l-.4.5c-.4.3-.6 1-.5 1.5v.1c.1.5.2 1 .1 1.2-.1.1-.5.3-1 .3-.4.1-.8.5-.8 1s-.2 1.3-.5 1.7l-.4.6c-.3.4-.1.7.4.7" fill="#0079c1"/>
    <path d="M150.1 108.3h3.1c.6 0 1.3-.3 1.6-.7l1.2-1.1q.1-.1.2-.3.1-.1.1-.3 0-.2-.1-.4l-.2-.2-1.2-1.2c-.3-.3-.3-.8.2-1.1l.3-.1c.4-.3.5-.7 0-1l-.4-.3c-.4-.3-1.2-.5-1.7-.5h-.6c-.5 0-1.1.4-1.3.8l-.1.2c-.2.5-.8 1-1.2 1.1-.5.2-.8.7-.8 1.2v3c0 .5.4.9.9.9m-52.5 61-1.1-1.1c-.4-.4-1.1-.6-1.6-.6h-3c-.5 0-1.2-.3-1.6-.6l-1.1-1.1c-.3-.4-1-.6-1.5-.6H87c-.5 0-1.1.2-1.5.6l-1.1 1.1c-.4.3-.3.6.2.6h3.1c.5 0 1.1.2 1.5.6l1.1 1.1c.4.3 1.1.6 1.6.6h5.4c.5 0 .7-.3.3-.6m6.8 1h-.5c-.4 0-1 .2-1.3.4-.3.3-.7.3-1 0-.3-.2-.5-.1-.5.3v.5c0 .4-.4.7-.8.7h-.5c-.4 0-.5.2-.2.5l.9.9c.3.3.8.3 1.1.1.3-.3.7-.3 1 0 .3.2.9.4 1.3.3h.3c.4-.1 1.1-.3 1.4-.5.3-.2.8-.5 1.1-.8.3-.3.3-.7 0-1l-1-.9c-.3-.3-.9-.6-1.3-.5zm-10 1.9c-.5 0-.6.3-.3.6l1.1 1.1c.4.3.9.3 1.3 0 .3-.3.3-.8 0-1.1-.4-.3-1-.6-1.5-.6h-.6zm56-89.1c.3.3.5.8.5 1.1v.5c0 .3.4.6.7.6h.5c.4 0 1 .3 1.2.5.3.2.8.4 1.2.4h2.4c.4 0 .9-.2 1.2-.4l2.8-2.7c.2-.3.2-.7 0-1l-1.8-1.7c-.3-.2-.8-.5-1.2-.5h-2.4c-.4 0-1 .2-1.3.5l-.9.8c-.2.3-.7.3-1 .1-.3-.3-.7-.7-1-.9l-.8-.9q-.1-.1-.3-.2h-.5l-.2.2-.9.9c-.3.2-.5.8-.5 1.1v.5c0 .4.3.7.7.7h.5c.4 0 .9.2 1.1.4zM87.1 98.6c-.5-.1-1.2.1-1.6.4l-1.1 1-.2.2v.7l.2.2.7.7c.4.3 1 .3 1.3 0l2.4-2.1c.4-.3.3-.7-.2-.8l-1.5-.3z" fill="#0079c1"/>
    <path fill-rule="evenodd" d="M148.6 210.8c1.1.5 2.1 1.9 2.4 3.1.2 1.3-.5 3.3-1.7 4.5-1.2 1.2-2.1 3.2-2.1 4.4 0 1.2-1.4 3.6-3.2 5.5-1.8 1.8-4.2 3.3-5.5 3.4-1.2 0-2.7.6-3.3 1.2-.6.6-1.1 2-1 3.2 0 1.2-.9 3.2-2.1 4.4-1.2 1.2-2.4 2.5-2.7 2.8l-1.1 1.1c-.3.3-.8 1.2-1.2 1.9-.3.8-.6 2.1-.7 2.9 0 .8.2 2 .4 2.6.3.6.9 2.5 1.4 4.4h-.1s.1.2.2.5v.4q.1 0 .1.1c.4 1.5 1 4.4-.3 4.6q-3-1.4-6-3t-5.9-3.3q-2.8-1.7-5.6-3.6-2.8-1.9-5.5-4c-1.9-1.4-2.4-5.1-2.9-7.9q.1 0 .1.1-.1-.4-.1-.7-.1-.3-.1-.5-.2-.6-.3-1.1c-.5-2.3-1.1-5.3-1.6-7.2-.6-2.4-2.3-5.1-3.8-6-1.4-.9-4.3-3.7-6.4-6.3-2.1-2.5-3.9-6.9-4-9.7-.2-2.9.7-6.2 1.9-7.4 1.2-1.2 2.3-3.9 2.6-6 .2-2 1-4.3 1.9-5.3l-1.5-1.5c-.4-.3-1-.3-1.3 0l-1.1 1.1c-.4.3-1 .3-1.3 0l-1.2-1.1c-.3-.3-1-.6-1.5-.6h-.7c-.5 0-.9-.4-.9-.9v-3.5c.1-.4-.2-1.1-.5-1.5l-1.4-1.5c-.4-.3-1-.7-1.5-.8l-2.7-.4c-.5-.1-1.2-.4-1.5-.7l-1-1c-.3-.3-1-.7-1.4-.9l-2.2-.6c-.4-.1-1.2-.3-1.7-.3h-.7c-.5 0-1.1.2-1.5.5-.3.4-1 .5-1.5.4v.2c-1.4-.1-4.1-.8-5.2-3.8-.8-5.5-1.3-11-1.3-16.7 0-31.7 13.3-60.6 34.8-81.7q.1 0 .3-.1c1.9-1.2 4.9 1.4 5.1 1.6l8.9 9.7c.3.4.9 1 1.2 1.3l3.8 3.7c.3.4.3 1 0 1.3l-.5.7c-.3.4-.9.5-1.3.2l-2-1.3c-.4-.2-.9-.1-1.1.2-.3.4-.1.9.4 1.1l2.2 1.3c.4.2.8.8.7 1.3v.6c-.1.5-.5.8-1 .8l-7.9-.5c-.5 0-1-.4-1-.9l-.5-4.5c-.1-.5.2-1.1.6-1.4l.9-.8c.3-.3.5-.8.4-1.1-.1-.3-.5-.8-.9-1.1l-1.5-1.1c-.3-.3-1-.8-1.5-1l-3.3-1.5c-.4-.2-1.2-.3-1.7-.3h-.6c-.5 0-1.2.3-1.5.6l-1 1.2c-.4.4-.8 1-1.1 1.4l-1.2 2.3c-.2.4-.7 1-1 1.3-.3.4-.9.9-1.3 1.2L85 91.9q-.1.2-.2.3v.7l.2.2 2.4 2.3c.3.3.3.8 0 1.1-.4.3-.9.3-1.3 0-.3-.3-1-.5-1.5-.5H84c-.5 0-1.1.2-1.4.5-.2.3-.4.9-.4 1.4v.2c.1.5-.3 1-.8 1.2l-.6.1c-.4.2-1 .6-1.3 1l-2.5 3.9c-.3.4-.6 1.1-.8 1.6l-1.6 3.3q-.1.1-.1.3 0 .2.1.3.1.2.2.3l.2.2 7.6 3.6c.4.2 1 .7 1.2 1.1l1.8 3.8c.2.4.7.8 1.1.9.4.1 1.1-.1 1.5-.5l3.5-2.8c.3-.3.9-.9 1.1-1.3l1.5-2.6c.3-.4.5-1.2.6-1.6l.3-4.8c.1-.4.1-1.2.1-1.7v-2.9c0-.5.4-.8.9-.8h3c.5 0 1.2.2 1.5.6l3.6 3.4.2.2q.1.2.1.4 0 .1-.1.3-.1.2-.2.3l-1.1 1.1c-.4.3-.4.8-.1 1.2.4.3 1 .7 1.5.8l1.9.6c.5.2 1.2 0 1.5-.3l3.6-3.4c.3-.4.8-.3 1.1.1l3.9 5.5c.2.3.6 1 .7 1.5l.1.3c.1.4.1 1.2.1 1.7-.1.4 0 1.1.2 1.5.2.4.7.6 1.1.5.4-.1 1.1-.2 1.6-.2h3c.5 0 1.2.3 1.6.6l1.1 1.1c.4.3.5.9.2 1.4l-.4.7c-.2.4-.8.7-1.3.7h-1.5c-.5 0-1.2.3-1.6.6l-.2.1c-.4.3-.4.8-.1 1.2l2.4 2.2c.3.4.6 1 .6 1.5v.6c0 .4-.2 1.1-.6 1.4-.3.3-.9.3-1.2 0-.3-.3-1-.6-1.5-.6h-5.4c-.5 0-1.1-.2-1.5-.6-.3-.3-.4-.9-.2-1.3l1.1-2c.3-.4 0-.7-.5-.7h-6.1c-.5 0-1.2.3-1.6.7l-4.7 4.5c-.4.3-.4.9-.1 1.2.4.3.9.3 1.3 0l3.5-3.4c.4-.4 1.1-.6 1.6-.5l1.2.2c.4 0 .7.5.6.9l-.1.2c-.1.5.1 1.1.4 1.5l1.2 1.1c.3.3 1 .7 1.5.8l3.9 1.1c.5.1.6.5.2.8l-1.8 1.8c-.3.3-1 .6-1.5.6h-.8c-.5 0-.9-.3-.9-.8v-.6c0-.4-.4-1-.8-1.2l-1.9-1c-.4-.3-1.2-.4-1.7-.3l-1.5.4c-.5.1-1.1.4-1.5.8l-6.5 6.8c-.4.3-.6 1-.6 1.5v.5c0 .5-.3 1.2-.6 1.5-.4.3-.9.3-1.3 0l-1.1-1.1c-.4-.4-.9-.4-1.3-.1-.3.3-.3.9.1 1.2l1.1 1.1c.4.3.7 1 .7 1.5v.5c0 .5-.3 1.1-.7 1.5l-6 5.7c-.3.4-.6 1-.6 1.5v2.9c0 .5.3 1.1.6 1.5l1.2 1.1.2.2v.7q-.1.2-.2.3l-1.2 1.1c-.3.3-.9.3-1.2 0l-1.2-1.1c-.3-.3-.6-1-.6-1.5v-.6c0-.4-.3-1.1-.7-1.4l-1.1-1.1c-.4-.4-1.1-.6-1.6-.6H72c-.5 0-1.2.2-1.6.6l-2.3 2.2c-.4.4-1 .9-1.3 1.2-.3.3-.6 1-.6 1.5v7.4c0 .5.3 1.2.6 1.5l1.1 1.1c.4.3 1.1.6 1.6.6H75c.5 0 1.2-.3 1.5-.6l1.2-1.1c.3-.4 1-.6 1.5-.6h.6c.5 0 .9.3.9.8v2.9c0 .5-.3 1.2-.6 1.5l-1.2 1.1c-.3.3-.2.7.3.8l2 .4c.5.1 1.2.4 1.5.7l2.8 2.2c.4.3.7 1 .7 1.4v1.7c0 .5.3 1.1.7 1.4l.6.3c.4.3 1.1.3 1.5 0l1-.5c.5-.3 1.1-.2 1.4.1l3.8 3.7c.8-.2 1.5-.4 2.2-.4 1.9-.1 4 .4 4.6.9.6.6 2.7 1 4.5.9 1.9 0 5.5 1.8 8.1 4.1 2.5 2.2 5.6 4.1 6.9 4 1.2 0 3.5 1.1 5.1 2.5 1.6 1.5 4.2 3.3 5.8 4.1 1.6.9 3.5 1.6 4.2 1.7.7.1 2.7.5 4.5.9 1.8.5 3.8 1.3 4.4 1.8.7.6 2 1.5 3.1 1.9M125.4 55.7c-.8-.2-2.4-1.4-2.9-2.1 17.6-9.3 38-14.6 59.3-14.6 21.2 0 41.1 5.2 58.6 14.3 0 0 1.6 1.1.5 2.8-.9 1.6-3 .8-3 .8-16.7-8.7-35.8-13.6-56.1-13.6q-3.9 0-7.6.2l-.2.2-4.1 1.8c-.3.2-.6.6-.6.9v1.8l.1 2.1c0 .3-.2.8-.4 1.1l-.8 1.1c-.2.3-.6.7-.9.9l-2.1 1.4c-.3.2-.7.6-.9.9l-1.3 1.6c-.2.3-.7.5-1 .5h-.9c-.3 0-.8.2-1.1.4l-4.5 4.2c-.2.3-.6.7-.9.9l-2.6 2.5c-.2.2-.7.6-.9.9l-.7.7c-.3.2-.5.7-.5 1.1l-.1 2.2c0 .4-.2.9-.5 1.1l-.8.7c-.2.2-.7.3-1.1.1l-2.3-1c-.3-.1-.8-.4-1.1-.7l-7-6.7c-.3-.2-.5-.7-.5-1l.1-.6c0-.3.2-.8.4-1 .2-.2.6-.6.8-.9l.8-.8c.3-.3.5-.8.5-1.1v-.4c.1-.3-.2-.6-.6-.6l-2.4-.1c-.3 0-.9-.1-1.2-.2l-2.2-1.1c-.4-.2-3.5-.3-4.2-.3-.8-.1-2.2-.2-3-.4zm161.9 145.2c.4 0 1 .1 1.3.3l5.1 3.5c-19.4 40.6-62.3 68.9-112 68.9-8.6 0-17.1-.8-25.2-2.5 0 0-2-.7-1.5-2.6.4-1.8 2.6-1.5 2.6-1.5 7.8 1.5 15.9 2.3 24.1 2.3 37.9 0 71.6-17 93.3-43.5h-3c-.4 0-.9.2-1.2.4l-.9.9c-.3.2-.7.2-1 0l-.8-.9c-.3-.2-.5-.7-.5-1.1v-5.8c0-.4-.3-.9-.5-1.1l-.9-.9c-.3-.2-.5-.7-.5-1.1V214c0-.4.2-.9.5-1.1l2.7-2.7c.3-.2.8-.4 1.2-.4h2.4c.3 0 .9-.2 1.1-.5l.9-.8.5-.5.5-.5 3.7-3.5q.1-.1.2-.1.1-.1.3-.1.1 0 .2.1.2 0 .2.1l.9.9c.3.2.8.2 1 0l3.7-3.5c.3-.3.8-.5 1.2-.5h.4zM25.7 150l1.5-3.2 2.7.1-4.8 9.3c-1.1 2.5-3.7 3.5-7.3 3.2-4.5-.3-7.3-2.3-7-6.7.3-4.4 3.4-6 7.9-5.7 3.4.2 5.8 1.4 6.7 3.8l.3-.8zm-7.7 6.9c2.7.2 5.1-.4 5.3-3.4.3-2.9-2-3.8-4.8-4-2.7-.2-5.1.4-5.3 3.4-.2 2.9 2.1 3.8 4.8 4zm3.1-13.2-9-1.5.4-2.4 9.1 1.4c1.7.3 3.1 0 3.6-2.6s-.8-3.3-2.5-3.6l-9.1-1.5.5-2.5 9 1.5c3.1.5 5.2 2.2 4.5 6.5-.8 4.3-3.4 5.2-6.5 4.7zm-5-21.3zm.8-2.8 15.5-1.2-.7 2.6-3.5.2-1.5 5.3 2.9 1.9-.8 2.6-12.7-8.6zm4.2 3.4 3.7 2.3 1.1-3.9-4.3.2-2.6.1zm2.4-21.4 2.2.8-2.7 6.9 3.2 1.2 2.4-6.1 2.3.8-2.4 6.1 3.5 1.2 2.9-7.2 2.2.8-3.8 9.6-13.5-4.9zm16.5-1.3-1.2 2.2-12.9-6 2.6-5.1c1.1-2.2 2.9-3.9 6.1-2.5 2.3 1.1 2.8 2.7 2.5 4.2l6.9-.5-1.4 2.6-6.5.4-1.2 2.3zm-5.7-6.4c.4-.8.8-1.9-.8-2.6-1.7-.8-2.3.2-2.7.9l-1.6 3.1 3.5 1.6 1.6-3zM47 87.6l-1.3 2.2-12.5-6.9 1.3-2.2zm5.5-8.2-1.4 2.1-10-6.4-2.4 3.3-2-1.2 6.2-8.8 2 1.3-2.4 3.3zm-.6-22 1.9 1.4-4.8 5.8 2.6 2 4.3-5.1 1.9 1.5-4.3 5.1 3 2.2 5-6 1.9 1.5-6.7 7.9-11.3-8.6zm21.2-1.3-1.9 1.7L61.1 48l1.8-1.7zm-.1-7-5.9-6.6 2-1.7 5.9 6.7c1.1 1.3 2.4 1.9 4.6.2 2.1-1.7 1.6-3 .5-4.3l-6-6.7 2-1.6 6 6.7c2 2.3 2.5 4.9-1 7.7s-6.1 1.9-8.1-.3zm15.8-6-8.2-11.3 4.2-2.8c3.7-2.4 6.9-1.9 9.7 2 2.8 3.9 2.2 7-1.5 9.4zm2.9-4.7c2.5-1.7 2.3-3.7.7-6-1.7-2.4-3.7-3.2-6.1-1.6l-2.1 1.4 5.4 7.6 2.1-1.4zm13-5.1-2.3 1.2-7.2-11.9 2.2-1.2zm8.5-6.6c1.8-.8 2.2-1.8 1.7-3.4l2.5-.8c.9 2.5.2 4.7-3.2 6.3-4 1.9-6.9 0-8.8-3.8-2-3.9-1.7-7.2 2.3-9.1 3.4-1.5 5.7-.7 7.2 1.6l-2.3 1.3c-1-1.3-2.1-1.6-3.8-.8-2.7 1.3-2.2 3.5-1 5.9 1.2 2.3 2.7 4.1 5.4 2.8zm12.4-2.9-2.4 1-5.4-12.9 2.5-.9zm2.7-6.4L125.6 9l2.5-.7 2.7 8.3c.5 1.6 1.4 2.7 4.1 2 2.6-.8 2.7-2.2 2.2-3.8l-2.7-8.4 2.5-.7 2.7 8.3c1 2.9.3 5.5-4 6.8-4.3 1.2-6.4-.6-7.3-3.4zm22.9-.7-4-6.3-1.3-2 .8 3.8 1.1 5.2-2.6.4-2.7-13.5 3-.6 4.4 6.9 1.5 2.3.5-2.7 1.5-7.9 3-.6 2.7 13.6-2.5.4-1.1-5.1-.7-3.8-.4 2.3-1.3 7.3zm17.1-7.5c-1.4.1-2.7-1-2.8-2.4-.1-1.4 1-2.7 2.5-2.8 1.5-.1 2.8 1 2.9 2.4.1 1.4-1.1 2.6-2.6 2.8zm9.2.5zm2.7-.2c.2 1.6 1.2 2.2 3.2 2.2 1.4 0 3.1-.5 3.1-2 0-1.2-.8-1.7-3.2-2-2.6-.2-5.2-.9-5.2-3.8s2.5-4.2 5.3-4.2c3.8.1 5.5 1.7 5.7 4.3l-2.6.2c-.2-1.6-1.2-2.1-3.2-2.2-.9 0-2.6.4-2.6 1.9 0 1 .6 1.4 2.8 1.6 3.6.4 5.6 1 5.6 4.2 0 3.1-2.8 4.4-5.7 4.3-4 0-5.6-1.5-5.9-4.2zm12.9-.6 1-8.7 2.6.3-1 8.7c-.2 1.7.2 3 3 3.3 2.7.3 3.4-.9 3.6-2.6l1-8.7 2.6.2-1 8.7c-.3 3-2 5.2-6.5 4.7s-5.6-2.9-5.3-5.9zm14.4 6.7 2.8-13.5 6.2 1.2c1.8.3 4.1 1.4 3.4 4.6-.3 1.4-1.1 2.1-1.9 2.4.9.6 1.5 1.8 1.1 3.5-.7 3.3-3 3.5-5.4 3 0 0-6.2-1.1-6.2-1.2zm6.5-1c.9.1 2.2.3 2.5-1.4.4-1.6-.7-2-1.6-2.1l-3.6-.7-.8 3.5 3.5.7zm-1.6-9.7-.7 3.2 3.4.6c1.1.2 1.9.1 2.1-1.3.3-1.3-.3-1.7-1.4-1.9zm15.3 12.4 2.1-2.8 4.9-6.6 2.8.8-9.5 12-2.5-.7-1-15 2.8.8.3 8zm22.8-3.5-.9 2.1-7.1-2.8-1.3 3.1 6.3 2.4-.9 2.2-6.3-2.5-1.5 3.4 7.5 2.9-.9 2.1-9.9-3.8 5.5-12.8zm5.5 10-.2-2.5-1.6 2.9-2.9 5.3-2.3-1.2 6.7-12.2 2.2 1.1.9 8.5.3 2.5 1.6-2.9 2.9-5.3 2.3 1.2-6.8 12.2-2.1-1.1zm9.3 13.3-2.2-1.3 7.7-11.7 2.2 1.3zm8.7 5.7-2.1-1.5L279 32l-3.5-2.3 1.5-1.9 8.9 6.2-1.4 1.8-3.4-2.3zm23.4.5-1.6 1.7-5.8-4.8-2.3 2.5 5.2 4.2-1.6 1.8-5.1-4.3-2.5 2.7 6.1 5.1-1.6 1.7-8.1-6.7 9.5-10.4zm2.5 11.9c3.4-2.8 6.9-3.3 9.9 0s2.1 6.5-1.3 9.4c-3.4 2.9-6.9 3.3-9.9 0-3.1-3.3-2.2-6.5 1.3-9.4zm1.7 1.9c-2 1.8-3.3 3.8-1.2 6 2 2.2 4.3 1.3 6.3-.4 2.1-1.7 3.4-3.8 1.3-6-2.1-2.2-4.3-1.3-6.4.4zm5.4 17.1zm-1.5-2 11.7-8.1 3.3 4.3c1.4 1.8 2.1 4.3-.8 6.3-2.9 2.1-5.1.6-6.6-1.3l-1.7-2.3-4.4 3.1zm13.1-2.3-1.8-2.4-3.4 2.3 1.8 2.4c.6.7 1.5 1.5 2.9.5 1.5-1.1 1-2.1.5-2.8zm-4.3 14.5zm-1.3-2.1 12.4-7.1 2.8 4.5c1.3 1.9 1.8 4.5-1.3 6.3-3.1 1.7-5.1.1-6.4-1.9l-1.5-2.4-4.7 2.7zm13.3-1.2-1.6-2.6-3.6 2.1 1.6 2.5c.5.8 1.3 1.6 2.9.7 1.6-.9 1.2-2 .7-2.7zm-5.2 14.7-1.1-2.2 13-6.1 2.6 5.2c1.1 2.2 1.4 4.6-1.8 6.1-2.3 1.1-3.8.5-4.9-.8l-3.8 5.6-1.4-2.7 3.7-5.1-1.2-2.3-5.1 2.3zm8.9-.3c.4.8 1 1.8 2.7 1 1.6-.8 1.2-1.9.8-2.7l-1.5-3-3.6 1.6 1.5 3.1zm13.6 15.5-2.3.8-2.6-6.9-3.3 1.2 2.4 6.1-2.2.8-2.4-6.1-3.6 1.2 2.8 7.2-2.2.9-3.7-9.6 13.5-4.8zm-8.3 7.4 1 2.4c-1.6.6-1.9 1.7-1.4 3.5.4 1.3 1.3 2.7 2.9 2.3 1.2-.3 1.5-1.1 1.1-3.4-.5-2.5-.5-5.1 2.5-5.9 2.9-.7 4.9 1.2 5.6 3.8 1 3.5-.2 5.5-2.8 6.4l-.9-2.4c1.6-.6 1.9-1.6 1.3-3.4-.2-.9-1-2.4-2.6-2-.9.3-1.2.9-.8 3 .6 3.4.5 5.5-2.8 6.3-3.1.8-5.1-1.4-5.9-4.1-1-3.6.1-5.5 2.8-6.5zm3.8 14.2.7 2.5c-1.6.4-2 1.5-1.7 3.4.3 1.3 1.1 2.8 2.6 2.5 1.3-.1 1.7-1 1.5-3.3-.2-2.5 0-5.1 3.1-5.6 3-.5 4.7 1.6 5.2 4.3.6 3.5-.7 5.4-3.4 6.1l-.7-2.4c1.6-.5 2-1.5 1.7-3.4-.2-.9-.8-2.4-2.4-2.1-1 .2-1.3.8-1.2 2.9.3 3.4 0 5.4-3.3 6-3.2.5-5-1.9-5.5-4.6-.6-3.7.6-5.5 3.4-6.3zm5.5 14.5c4.6-.3 7.6 1.3 7.9 5.7.4 4.4-2.4 6.4-7 6.7-4.5.3-7.6-1.3-7.9-5.7-.3-4.4 2.5-6.4 7-6.7zm.2 2.5c-2.7.2-5 1.1-4.8 4 .2 3 2.6 3.6 5.3 3.4 2.8-.2 5-1.1 4.8-4.1-.2-2.9-2.6-3.5-5.3-3.3z" fill="#0079c1"/>
    <path fill-rule="evenodd" d="M362.4 198.5q-.1 1.2-.3 2.4c-2.5 15-13.6 24.1-26 26.4-.6.1-1 0-1.5-.1q-5.3 10.3-11.9 19.7c4.5-4.1 10.1-7.6 15.6-9.7.1 0 .3-.1.3-.1.5-.2 2.6-.9 3.2-1h.1c2.1-.5 4.2-.8 6.1-.7q-.4 1.2-.9 2.3c-5.7 14.1-18.7 20.7-31.3 20.4q-.8-.1-1.5-.4c-5.2 6.1-10.8 11.9-16.8 17.2l.3-.2c5.4-3 11.8-5.4 17.7-6.3.1 0 .4-.1.4-.1.4 0 2.7-.3 3.3-.3l.1.1c2.2-.1 4.2.1 6.1.5-.4.7-.9 1.4-1.4 2.1h.1c-8.9 12.6-23 16.3-35.3 13.5q-.9-.4-1.6-.9c-6.8 5-13.9 9.6-21.4 13.7l3.3-.4c6-1.9 12.7-2.9 18.7-2.6h.4c.4.1 2.7.3 3.3.4l.1.1c2.1.4 4.1 1 5.8 1.8q-.9.9-1.8 1.7c-11.5 10.5-26.1 11.3-37.5 5.9-.9-.6-1.5-1.3-2-2.1q-10.4 4.9-21.5 8.3c5.7-.2 11.6.3 16.7 1.7.1 0 .3.1.3.1.4.1 2.6.8 3.2 1.1 2 .9 3.8 1.9 5.3 3.1-.8.4-1.5.8-2.2 1.3-13.7 7.7-28.1 5.3-37.9-2.4q-.4-.4-.7-.9-10.6 2.3-21.7 3.3l1.7 3.9 2.6 6c.4.8.2 1.8-.4 2.5l-3.5 4.3c-.5.6-1.3.9-2.1.9h-.3c-1-.1-1.7-.7-2.1-1.5l-3.5-8.2c-.9.4-1.9.7-3.4.7q-2.9 0-4.2-1.5-.2-.2-.3-.4c-.7.9-2.1 1.9-4.9 1.9-1.8 0-3.2-.5-4.1-1.4l-3.8 8.9c-.3.8-1.1 1.4-2 1.5h-.4c-.8 0-1.5-.3-2-.9l-3.6-4.3c-.6-.7-.7-1.7-.4-2.5l2.6-6 1.7-3.9c-8.5-.8-16.9-2.2-25.1-4.1q-.8.7-1.9 1.1c-5.3 2-10.8 3.6-16.5 4.7q-.3.1-.6.1c-3 .4-6.2-1.3-7.3-3.8-.6-1.6-.3-3.2.8-4.4l.9-.7c-.1-.1-5.8 1.2-5.8 1.2q-3.7.9-7.6 1.6h-.3c-3 .4-6.4-1.5-7.5-4.2-.5-1.4-.4-2.7.3-3.8.7-1.2 2-2 3.6-2.2q.8-.1 1.7-.2 0-.1.1-.1c-.1-.1-.4-.4-1.1-.8q-2.7-1.5-5.2-3.1c-1.5-.9-2.5-2.3-2.8-3.8q-.2-.9 0-1.7-2.1-1.2-4.1-2.5-1.1.6-2.4.6c-5.6.2-11.4 0-17.2-.7q-.3 0-.6-.1c-3-.6-5.5-3.2-5.6-5.9-.1-1.7.8-3.2 2.3-3.9 0 0 1-.4 1.1-.5-.1 0-5.9-.5-5.9-.5q-3.9-.4-7.7-1h-.3c-3-.6-5.5-3.4-5.6-6.3-.1-1.5.5-2.7 1.5-3.6 1.1-.9 2.6-1.2 4.1-.9q.9.2 1.7.3h.1c0-.1-.1-.4-.7-1.1-1.3-1.5-2.6-3.1-3.9-4.6-1-1.3-1.5-2.9-1.3-4.5q.2-1.2 1-2.1-1.6-2.1-3.2-4.1c-.9.1-1.8.1-2.7-.2q-2.1-.7-4.1-1.5-1.9-.8-3.9-1.7-2-.8-3.9-1.7l-3.8-2q-.3-.1-.5-.2c-2.6-1.7-3.8-5-2.9-7.5.6-1.6 2-2.7 3.7-2.8 0 0 1-.1 1.1 0 0-.1-5.2-2.7-5.2-2.7q-3.5-1.7-6.8-3.6l-.3-.2c-2.5-1.6-3.8-5.2-2.7-7.8.5-1.4 1.5-2.4 2.8-2.8 1.4-.4 2.9-.2 4.2.6q.7.5 1.5.9c.1-.1.1-.4-.2-1.3q-1-2.8-1.8-5.6c-.5-1.6-.3-3.3.5-4.6q.3-.4.6-.7-1.1-3.2-2.1-6.5c.3-.7.9-1.3 1.8-1.5.8-.2 1.7.2 2.2.7h.1q.8 3 1.8 5.9c.9 0 1.7.3 2.5.8l.8.6q.4.4.7.8.3.4.6.9l.4 1q.1.5.3 1l.4 1.3c.5 1.6 1.1 3.5 1.5 3.8l.1-.1v-.1q.3-.7.6-1.3.2-.5.4-.9.3-.4.7-.7.3-.4.8-.6.4-.3.9-.4c1.3-.5 2.7-.4 4 .2q.4.1.7.3c2.1 1.4 2.9 3.9 2 6.1q-.3 1-.7 1.9-.3 1-.7 2-.3 1-.6 1.9l-.6 2v.2c-.3.8-.8 3.1-.8 3.1.1 0 .5-.7.5-.7 1.1-1.3 2.9-1.9 4.7-1.7q1.2.2 2.2.9c1.6 1 2.5 2.7 2.5 4.6-.3 4.8-.1 9.8.5 14.6.2 1-.1 2-.5 2.9q1.9 2.5 3.9 4.9H52q.2 0 .3.1.5.1 1 .3.5.2.9.5.5.2.9.6.4.4.7.8.4.4.7.8l.9 1.1c1.1 1.2 2.4 2.8 2.9 2.9V259.8c.1-1.4.6-2.6 1.6-3.5 1-.9 2.4-1.3 3.8-1.2.3 0 .6 0 .8.1 2.5.5 4.2 2.5 4.3 4.9q.1 4.1.6 8.2v.1c.1.9.6 3.2.6 3.2 0-.1.2-.8.2-.8.5-1.6 1.8-2.9 3.6-3.3q1.2-.2 2.4 0c1.9.4 3.4 1.7 4.1 3.4q.6 1.7 1.3 3.4.8 1.7 1.5 3.4.8 1.7 1.7 3.3.8 1.7 1.7 3.3c.6 1 .8 2.1.7 3.2l4.2 2.6q.8-.4 1.7-.5.6-.1 1.1-.1.6.1 1.1.2.5.1 1 .3.5.2 1 .5t.9.6l1.2.7c1.5.9 3.3 1.9 3.7 1.9q.1 0 .1-.1l-.1-.1c-.2-.5-.3-.9-.5-1.4q-.1-.4-.2-.9t0-1q0-.5.1-.9.2-.5.4-.9c.7-1.2 1.8-2 3.2-2.4q.4-.1.8-.1c2.5-.3 4.8 1 5.7 3.3q.4.9.8 1.9.4.9.8 1.9.4.9.9 1.9.4.9.9 1.8v.1c.4.8 1.6 2.8 1.6 2.8.1 0 0-.7 0-.7-.1-1.7.7-3.3 2.3-4.3q1-.6 2.3-.8c1.9-.2 3.8.6 5 2 3.1 3.8 6.7 7.4 10.5 10.7.9.8 1.5 1.9 1.7 3 7 1.6 14.2 2.9 21.6 3.7l-.8-1.8-2.6-6c-.3-.8-.2-1.7.4-2.5l3.5-4.3c.6-.6 1.3-.9 2.1-.9h.4c.9.1 1.7.7 2 1.5l3.4 8c.7-.3 1.6-.5 2.7-.5 1.9 0 3.3.5 4.2 1.5q0 .1.1.1c.7-.8 2.1-1.6 4.6-1.6q2.8 0 4.2 1.6l.2.2 4-9.3c.3-.8 1.1-1.4 2-1.5h.4c.8 0 1.5.3 2 .9l3.6 4.3c.6.8.7 1.7.4 2.5l-2.6 6-1 2.2c7.5-.6 14.8-1.8 22-3.3.4-8.4 5.8-18.2 15.7-21.6-1.1 7.2-5.3 16.1-10.8 20.5 11.1-2.7 21.7-6.5 31.8-11.2-.9-8 2.2-17.6 10.5-22.7.5 6.1-.8 13.9-3.8 19.4q3-1.6 6-3.3 3-1.7 5.9-3.5 2.9-1.9 5.7-3.8 2.8-2 5.5-4c-3.1-7.7-2.5-18.3 4.7-25.4 2.1 6.6 2.5 15.4.1 21.6 7.8-6.3 15.1-13.4 21.6-21.1-5-6.9-6.9-17.5-1.3-26 3.6 6.1 5.9 15 4.8 21.6q2.3-2.9 4.5-6t4.2-6.2q2.1-3.2 4-6.5l3.6-6.6c-6.5-5.7-10.7-15.7-7.2-25.2 4.9 5.3 9.2 13.6 9.6 20.3q4.9-10.4 8.2-21.5c.6-.6 1.4-.9 2.2-.7.9.2 1.5.8 1.8 1.5-1.5 5.2-3.3 10.2-5.3 15.1 3.6-4.9 8.2-9.6 13.1-12.7.1-.1.3-.2.3-.2.4-.3 2.4-1.4 2.9-1.7h.1c2-.9 3.9-1.6 5.8-1.9M189.6 322.2l2.7-6 2.5-5.7 2.6-6-3.6-4.3-4.4 10.3-5.2 11.8s-.2 1.2 2.4 1.2c2.3 0 2.9-.9 3-1.1v-.2zm-4.2-11.7s.3-1.3-2.4-1.3c-2.8 0-3 1.3-3 1.3l-5.2 11.7s-.4 1.3 2.4 1.3c2.7 0 3-1.3 3-1.3zm-8.9 0s.2-1.2-2.4-1.2c-1.7 0-2.4.5-2.8.8v.1c-.1.2-.2.3-.2.3v.1l-.1.2-5.1 11.5-2.6 6 3.6 4.3 4.4-10.3zm-11.1 6.4v.1h.1zm1-2.3 2.2-5.1q.2-.4.6-.9l-3.7-8.5-3.5 4.4 2.5 5.9zm33.1 13.6zm0 0-2.6-5.9-2.3-5.1-2.6 6c0 .1-.1.1-.1.1l4 9.2zM37.2 168.9c0 1.7.3 20.8.3 20.8l-15.5-.3c-.6 1.1-.9 1.4-3.1 1.4h-.2c-2.2 0-2.6-.3-3.2-1.4l-15.5.3s.3-19.1.4-20.8c7 .4 11-2 13.5-2 2.5.1 3.9.9 4.9 2 .9-1.1 2.3-1.9 4.8-2 2.6 0 6.6 2.4 13.5 2zm-20.4 3.7c-.6-1.3-1.9-2.2-3.8-2.3-2 0-6.6 2-9.6 1.5-.1 2.8-.4 11.6-.4 14.7 4.4-.1 7.6-1.6 9.4-1.7 1.8-.1 3.2.6 4.4 1.4zm8.5 12.2c1.8 0 5 1.6 9.3 1.6 0-3-.2-11.8-.3-14.6-3 .5-7.7-1.5-9.6-1.5-1.9 0-3.3 1-3.8 2.3v13.6c1.2-.8 2.5-1.5 4.3-1.4zm338.1 4.9-15.5-.3c-.6 1.1-.9 1.4-3.1 1.4h-.2c-2.2 0-2.6-.3-3.2-1.4l-15.5.3s.3-19.1.4-20.8c7 .4 11-2 13.5-2 2.6.1 3.9.9 4.9 2 1-1.1 2.3-1.9 4.8-2 2.6 0 6.6 2.4 13.5 2 .1 1.7.4 20.8.4 20.8zm-20.8-17.1c-.5-1.3-1.8-2.2-3.8-2.3-1.9 0-6.6 2-9.5 1.5-.2 2.8-.4 11.6-.4 14.7 4.3-.1 7.5-1.6 9.4-1.7 1.8-.1 3.1.6 4.3 1.4zm8.5 12.2c1.8 0 5 1.6 9.4 1.6 0-3-.2-11.8-.4-14.6-3 .5-7.6-1.5-9.6-1.5-1.9 0-3.2 1-3.8 2.3v13.6c1.3-.8 2.6-1.5 4.4-1.4z" fill="#0079c1"/>
</svg>