<svg xmlns="http://www.w3.org/2000/svg" width="105" height="92" viewBox="0 0 105 92" fill="none">
    <path fill="currentColor" d="M39.528 55.15 25.336 18.263a4.872 4.872 0 0 0-2.723-3.068 4.91 4.91 0 0 0-4.11.081 4.853 4.853 0 0 0-2.483 2.79c-.028.078-.05.156-.06.192-2.48 7.112-5.014 12.807-7.466 18.295C5.97 42.202 3.366 48.047.786 55.488c-.992 2.85-1.24 5.127.427 8.315 4.003 7.666 11.092 12.244 18.99 12.244 7.759 0 14.802-4.487 18.824-12.006 1.786-3.32 1.57-5.644.546-8.759a1.129 1.129 0 0 0-.045-.132Zm-5.611 6.66c-3.081 5.456-8.187 8.69-13.733 8.69-5.546 0-10.67-3.24-13.737-8.69h27.47Zm-27.52-5.553c2.387-6.733 4.82-12.19 7.18-17.476 2.296-5.2 4.715-10.57 7.094-17.188l13.315 34.664H6.396ZM104.225 55.282c0-.046-.032-.091-.051-.133L89.991 18.262a4.908 4.908 0 0 0-1.16-1.968 4.933 4.933 0 0 0-1.93-1.233 4.92 4.92 0 0 0-3.74.224 4.891 4.891 0 0 0-2.49 2.79 1.221 1.221 0 0 0-.055.192c-2.48 7.103-5.01 12.774-7.466 18.295-2.525 5.657-5.133 11.503-7.713 18.944-.992 2.85-1.24 5.127.427 8.32 4.004 7.66 11.097 12.239 18.971 12.239 7.76 0 14.808-4.487 18.848-12.006 1.772-3.339 1.556-5.662.542-8.777Zm-33.187.974c2.392-6.737 4.826-12.193 7.181-17.476 2.324-5.2 4.716-10.57 7.094-17.188L98.65 56.256H71.038Zm27.521 5.539c-3.08 5.456-8.186 8.69-13.733 8.69-5.546 0-10.67-3.238-13.737-8.69h27.47Z"/>
    <path fill="currentColor" d="M80.13 86.466H24.885v5.539h55.243v-5.54ZM61.065 6.243a8.934 8.934 0 0 0-3.269-4.525 8.99 8.99 0 0 0-10.634.054 8.933 8.933 0 0 0-3.223 4.558H10.937v5.562h33.108a8.955 8.955 0 0 0 2.194 3.423 9.001 9.001 0 0 0 3.485 2.106v65.363h5.56V17.421a9.006 9.006 0 0 0 3.527-2.15 8.96 8.96 0 0 0 2.19-3.494h33.058V6.243H61.065Zm-5.142 2.69a3.388 3.388 0 0 1-.573 1.89 3.424 3.424 0 0 1-5.25.518 3.394 3.394 0 0 1-.74-3.707A3.402 3.402 0 0 1 50.62 6.11a3.42 3.42 0 0 1 1.897-.571 3.422 3.422 0 0 1 2.4 1c.637.635.995 1.496.998 2.393h.009Z"/>
</svg>