<svg xmlns="http://www.w3.org/2000/svg" width="99" height="99" viewBox="0 0 99 99" fill="none">
    <path fill="currentColor" d="M81.372 80.198c16.978-17.585 16.456-45.635-1.13-62.613-14.024-13.504-35.17-16.283-52.191-6.86V4.906c24.62-11.854 54.19-1.52 66.043 23.1 8.902 18.541 5.471 40.642-8.684 55.536h11.81v5.21H76.206V67.737h5.21v12.462h-.043ZM13.591 15.458H1.824v-5.21H22.84v21.015h-5.21V18.8C.651 36.386 1.172 64.436 18.757 81.371 32.783 94.875 53.93 97.654 70.95 88.23v5.862c-24.62 11.854-54.189 1.52-66.043-23.1-8.901-18.497-5.471-40.642 8.684-55.535Z"/>
    <path fill="currentColor" d="M48.371 72.687c-.955-.434-23.621-11.29-23.621-27.095 0-8.64 6.99-15.632 15.632-15.632a15.65 15.65 0 0 1 9.118 2.953c6.99-5.037 16.76-3.43 21.797 3.56a15.65 15.65 0 0 1 2.953 9.119c0 15.805-22.666 26.66-23.621 27.095l-1.129.52-1.129-.52Zm2.953-34.52-1.824 1.78-1.824-1.78c-4.125-4.038-10.725-3.951-14.72.13a10.43 10.43 0 0 0-2.996 7.295c0 6.34 5.428 11.984 10.03 15.632 2.997 2.344 6.167 4.429 9.553 6.165 6.34-3.256 19.54-12.07 19.54-21.84 0-5.775-4.69-10.421-10.421-10.421-2.736.043-5.384 1.085-7.338 3.039Z"/>
</svg>
