<svg xmlns="http://www.w3.org/2000/svg" viewBox="0 0 24 24" fill-rule="evenodd" clip-rule="evenodd" fill="currentColor" stroke="currentColor" stroke-width="1">
	<path d="m8.26 1.289-1.564.772c-5.793 3.02 2.798 20.944 9.31 20.944.46 0 .904-.094 1.317-.284l1.542-.755-2.898-5.594-1.54.754a1.375 1.375 0 0 1-.597.134c-2.561 0-6.841-8.204-4.241-9.596l1.546-.763L8.26 1.289zM16.006 24C10.326 24 3.785 12.886 3.785 6.168c0-2.419.833-4.146 2.457-4.992L8.624 0l3.857 7.347-2.437 1.201c-1.439.772 2.409 8.424 3.956 7.68l2.399-1.179 3.816 7.36s-2.36 1.162-2.476 1.215a4.12 4.12 0 0 1-1.733.376"/>
</svg>